<?xml version="1.0" encoding="utf-8"?>
<!-- Generator: Adobe Illustrator 25.2.1, SVG Export Plug-In . SVG Version: 6.00 Build 0)  -->
<svg version="1.1" xmlns="http://www.w3.org/2000/svg" xmlns:xlink="http://www.w3.org/1999/xlink" x="0px" y="0px"
	 viewBox="0 0 748 500" style="enable-background:new 0 0 748 500;" xml:space="preserve">
<style type="text/css">
	.st0{opacity:0.49;}
	.st1{fill:#CFD0D1;}
	.st2{fill:#1671A7;}
	.st3{fill:#2BAB6A;}
	.st4{fill:#E84F31;}
	.st5{fill:#F28F2D;}
	.st6{opacity:0.6;fill:#3C4F5E;enable-background:new    ;}
	.st7{fill:#3C674E;}
</style>
<g id="Template">
</g>
<g id="Layer_1">
	<g id="Layer_1_1_">
		<g class="st0">
			<path class="st1" d="M344.6,135.1c0,16.5-13.4,29.9-29.9,29.9c-16.5,0-29.9-13.4-29.9-29.9s13.4-29.9,29.9-29.9l0,0
				c16.4-0.1,29.8,13.2,29.9,29.6C344.6,134.9,344.6,135,344.6,135.1z"/>
			<circle class="st1" cx="375.6" cy="255.7" r="29.9"/>
			
				<ellipse transform="matrix(8.248058e-02 -0.9966 0.9966 8.248058e-02 -20.8262 488.819)" class="st1" cx="255.1" cy="255.7" rx="29.9" ry="29.9"/>
			<circle class="st1" cx="435.3" cy="135.1" r="29.9"/>
			<circle class="st1" cx="496.1" cy="255.7" r="29.9"/>
		</g>
		<polygon class="st2" points="365.2,253.7 307.3,137.9 321.8,130.7 326.8,138.9 380.1,243.3 		"/>
		<polygon class="st3" points="430.4,143.3 486,253.7 500.5,244 447.4,138.2 		"/>
		<circle class="st4" cx="255.1" cy="255.7" r="14.5"/>
		<circle class="st5" cx="375.6" cy="255.7" r="14.5"/>
		<circle class="st3" cx="496.1" cy="255.7" r="14.5"/>
		<polygon class="st2" points="320.8,164.4 328.5,142.3 337,158.9 325.7,174.7 		"/>
		<polygon class="st6" points="320.8,164.4 307.3,137.9 321.8,130.7 328.5,142.3 		"/>
		<circle class="st4" cx="315.7" cy="135.5" r="14.5"/>
		<polygon class="st4" points="252.9,241.7 302.8,140.6 317.9,148.1 267.6,250.1 		"/>
		<polygon class="st7" points="441.3,164.8 449,141.4 445.2,130.7 430.4,145.8 435.3,153.1 		"/>
		<circle class="st5" cx="436" cy="135.1" r="14.5"/>
		<polygon class="st5" points="373.2,241.8 423.2,142.1 437.7,149.6 388.1,250.1 		"/>
		<g>
			<path d="M233.1,329.5h5.4l14,31.4l14-31.4h5.3v37.9h-5v-28.3l-12.6,28.3h-3.5l-12.7-28.3v28.3h-5V329.5z"/>
			<path d="M292.7,336.9c5.6,0,9.4,2.8,11.2,6v-5.5h5v30h-5v-5.6c-1.8,3.2-5.7,6.1-11.2,6.1c-8,0-14.2-6.3-14.2-15.6
				C278.5,342.9,284.7,336.9,292.7,336.9z M293.7,341.2c-5.5,0-10.1,4-10.1,11.1s4.7,11.2,10.1,11.2s10.2-4.1,10.2-11.2
				C303.9,345.4,299.2,341.2,293.7,341.2z"/>
			<path d="M317.4,326.8h5v23.8l11.6-13.3h7l-14.1,15l14.2,15.1h-6.8l-11.8-13.3v13.3h-5V326.8z"/>
			<path d="M358.6,367.9c-8.6,0-14.9-6-14.9-15.6c0-9.5,6.1-15.5,14.9-15.5c8.7,0,14.4,6.1,14.4,14.4c0,1.1-0.1,2-0.2,3h-24
				c0.4,6.1,4.7,9.4,9.8,9.4c4.5,0,7.3-2.3,8.4-5.5h5.4C370.9,363.6,366.1,367.9,358.6,367.9z M348.9,350.2h19
				c0.1-5.9-4.3-9.1-9.5-9.1C353.5,341.1,349.4,344.3,348.9,350.2z"/>
			<path d="M384.6,367.4h-5v-30h5v4.9c1.7-3.3,4.9-5.4,9.7-5.4v5.2H393c-4.8,0-8.4,2.1-8.4,9.1V367.4z"/>
			<path d="M405,329.2v34.2h13.4v4.1H400v-38.2H405z"/>
			<path d="M436.1,336.9c5.6,0,9.4,2.8,11.2,6v-5.5h5v30h-5v-5.6c-1.8,3.2-5.7,6.1-11.2,6.1c-8,0-14.2-6.3-14.2-15.6
				C421.9,342.9,428.1,336.9,436.1,336.9z M437.1,341.2c-5.5,0-10.1,4-10.1,11.1s4.7,11.2,10.1,11.2s10.2-4.1,10.2-11.2
				C447.3,345.4,442.6,341.2,437.1,341.2z"/>
			<path d="M477,336.9c8.1,0,14.3,6,14.3,15.4c0,9.3-6.2,15.6-14.3,15.6c-5.5,0-9.4-2.7-11.2-6v5.5h-5v-40.6h5v16.1
				C467.7,339.6,471.7,336.9,477,336.9z M476,341.2c-5.4,0-10.2,4.2-10.2,11.1c0,7.1,4.8,11.2,10.2,11.2c5.5,0,10.2-4.2,10.2-11.2
				S481.5,341.2,476,341.2z"/>
			<path d="M508.5,367.9c-7,0-12-3.8-12.3-9.3h5.2c0.3,2.9,2.9,5.1,7.1,5.1c3.9,0,6.1-2,6.1-4.4c0-6.7-17.8-2.8-17.8-14
				c0-4.6,4.3-8.4,11-8.4c6.6,0,11,3.6,11.3,9.4h-5c-0.2-3-2.5-5.2-6.5-5.2c-3.7,0-5.9,1.8-5.9,4.2c0,7.1,17.4,3.2,17.7,14
				C519.4,364.2,515.1,367.9,508.5,367.9z"/>
		</g>
	</g>
</g>
</svg>
